<?xml version="1.0" encoding="utf-8"?>
<!-- Generator: Adobe Illustrator 16.0.0, SVG Export Plug-In . SVG Version: 6.00 Build 0)  -->
<!DOCTYPE svg PUBLIC "-//W3C//DTD SVG 1.1//EN" "http://www.w3.org/Graphics/SVG/1.1/DTD/svg11.dtd">
<svg version="1.1" id="Layer_1" xmlns="http://www.w3.org/2000/svg" xmlns:xlink="http://www.w3.org/1999/xlink" x="0px" y="0px"
	 width="50px" height="50px" viewBox="-5 -2 50 50" enable-background="new -5 -2 50 50" xml:space="preserve">
<path fill="#8A70FF" d="M19.026,45.559c-2.871,0-5.458-0.592-7.759-1.777c-2.279-1.207-4.228-2.837-5.845-4.888
	c-1.596-2.051-2.826-4.386-3.691-7.007c-0.844-2.643-1.265-5.4-1.265-8.271c0-3.099,0.501-6.039,1.504-8.818
	c1.002-2.803,2.415-5.275,4.238-7.417c1.846-2.165,4.021-3.862,6.528-5.093c2.506-1.23,5.264-1.846,8.271-1.846
	s5.663,0.615,7.964,1.846s4.238,2.894,5.811,4.99c1.572,2.074,2.758,4.42,3.555,7.041s1.196,5.321,1.196,8.101
	c0,3.099-0.547,6.038-1.641,8.818c-1.071,2.78-2.552,5.253-4.443,7.417c-1.892,2.143-4.079,3.828-6.563,5.059
	C24.427,44.943,21.807,45.559,19.026,45.559z M20.53,40.944c3.008,0,5.491-1.47,7.451-4.409c1.96-2.963,2.939-7.463,2.939-13.501
	c0-3.145-0.489-6.095-1.47-8.853s-2.348-4.99-4.102-6.699c-1.732-1.732-3.771-2.598-6.118-2.598c-3.281,0-5.788,1.561-7.52,4.683
	c-1.732,3.122-2.598,7.474-2.598,13.057c0,3.396,0.513,6.483,1.538,9.263c1.048,2.779,2.438,4.99,4.17,6.631
	C16.554,40.135,18.456,40.944,20.53,40.944z"/>
</svg>
