<?xml version="1.0" encoding="utf-8"?>
<!-- Generator: Adobe Illustrator 16.0.0, SVG Export Plug-In . SVG Version: 6.00 Build 0)  -->
<!DOCTYPE svg PUBLIC "-//W3C//DTD SVG 1.1//EN" "http://www.w3.org/Graphics/SVG/1.1/DTD/svg11.dtd">
<svg version="1.1" id="Layer_1" xmlns="http://www.w3.org/2000/svg" xmlns:xlink="http://www.w3.org/1999/xlink" x="0px" y="0px"
	 width="44px" height="44px" viewBox="0 0 44 44" enable-background="new 0 0 44 44" xml:space="preserve">
<path fill="#8A70FF" d="M22,27.096c0,6.453-1.147,10.738-2.919,13.379c-1.642,2.447-3.817,3.482-6.111,3.523
	c-2.521,0.046-5.185-1.107-7.438-2.908C2.378,38.568,0.028,34.779,0,31.239c-0.018-2.231,0.888-4.364,3.096-6.017
	C5.692,23.28,10.089,22,16.904,22c-6.371,0-10.628-1.119-13.277-2.852C1.039,17.455-0.013,15.175,0,12.779
	c0.018-3.18,1.912-6.563,4.583-9.05C6.965,1.513,9.962,0.01,12.797,0c3.315-0.012,6.406,2.02,8.025,7.344
	C21.567,9.793,22,12.939,22,16.904c0-3.762,0.39-6.787,1.066-9.178c1.004-3.554,2.641-5.71,4.568-6.811
	c3.99-2.278,9.229-0.027,12.692,3.73c3.042,3.301,4.713,7.764,2.961,11.337c-0.968,1.974-2.979,3.676-6.38,4.761
	C34.424,21.536,31.198,22,27.096,22c4.916,0,8.574,0.666,11.205,1.767c3.328,1.392,5.014,3.479,5.526,5.791
	c0.79,3.563-1.207,7.663-4.272,10.582c-2.385,2.271-5.416,3.826-8.287,3.859c-1.965,0.022-3.854-0.669-5.408-2.333
	C23.564,39.209,22,34.63,22,27.096z"/>
</svg>
