<?xml version="1.0" encoding="utf-8"?>
<!-- Generator: Adobe Illustrator 16.0.0, SVG Export Plug-In . SVG Version: 6.00 Build 0)  -->
<!DOCTYPE svg PUBLIC "-//W3C//DTD SVG 1.1//EN" "http://www.w3.org/Graphics/SVG/1.1/DTD/svg11.dtd">
<svg version="1.1" id="Layer_1" xmlns="http://www.w3.org/2000/svg" xmlns:xlink="http://www.w3.org/1999/xlink" x="0px" y="0px"
	 width="50px" height="50px" viewBox="0 0 50 50" enable-background="new 0 0 50 50" xml:space="preserve">
<path fill="#8A70FF" d="M50,25c-1.641,1.055-3.169,2.082-4.606,3.101c-1.257,0.892-2.444,1.776-3.575,2.669
	c-0.934,0.736-1.828,1.478-2.692,2.23c-1.103,0.961-2.154,1.941-3.17,2.957c-0.932,0.932-1.833,1.893-2.717,2.895
	c-0.957,1.086-1.894,2.22-2.824,3.418c-0.894,1.151-1.782,2.361-2.68,3.645C26.836,47.199,25.929,48.557,25,50
	c-1.081-1.681-2.133-3.244-3.177-4.713c-0.806-1.134-1.606-2.211-2.411-3.24c-1.14-1.456-2.29-2.818-3.477-4.114
	c-0.739-0.807-1.493-1.588-2.269-2.35c-0.814-0.8-1.651-1.579-2.519-2.345c-0.83-0.731-1.688-1.451-2.583-2.165
	c-1.262-1.009-2.594-2.006-4.015-3.011C3.129,27.057,1.619,26.042,0,25c1.522-0.979,2.949-1.935,4.296-2.882
	c1.109-0.78,2.164-1.555,3.174-2.332c1.044-0.804,2.039-1.61,2.995-2.431c1.092-0.938,2.133-1.892,3.139-2.877
	c0.894-0.876,1.759-1.777,2.606-2.713s1.676-1.908,2.497-2.925c0.954-1.182,1.897-2.426,2.845-3.748C22.685,3.514,23.825,1.826,25,0
	c1.211,1.882,2.385,3.618,3.551,5.236c0.99,1.374,1.976,2.664,2.974,3.888c0.734,0.901,1.477,1.767,2.233,2.604
	c0.877,0.972,1.774,1.905,2.702,2.812c0.798,0.78,1.619,1.541,2.471,2.289c0.896,0.788,1.823,1.561,2.794,2.328
	c1.22,0.965,2.505,1.921,3.872,2.885C46.975,23.015,48.438,23.995,50,25z"/>
</svg>
