<?xml version="1.0" encoding="utf-8"?>
<!-- Generator: Adobe Illustrator 16.0.0, SVG Export Plug-In . SVG Version: 6.00 Build 0)  -->
<!DOCTYPE svg PUBLIC "-//W3C//DTD SVG 1.1//EN" "http://www.w3.org/Graphics/SVG/1.1/DTD/svg11.dtd">
<svg version="1.1" id="Layer_1" xmlns="http://www.w3.org/2000/svg" xmlns:xlink="http://www.w3.org/1999/xlink" x="0px" y="0px"
	 width="50px" height="50px" viewBox="0 0 50 50" enable-background="new 0 0 50 50" xml:space="preserve">
<path fill="#8A70FF" d="M25,0c1.791,0,3.479,0.444,4.959,1.228c1.544,0.818,2.861,2.007,3.836,3.448
	c0.572,0.847,1.025,1.78,1.335,2.777s0.478,2.056,0.478,3.154c0,1.842-0.471,3.574-1.297,5.084c1.51-0.826,3.242-1.297,5.084-1.297
	c1.465,0,2.859,0.297,4.129,0.833c0.771,0.327,1.496,0.743,2.162,1.234c0.666,0.491,1.272,1.059,1.808,1.69
	C49.057,19.999,50,22.39,50,25c0,2.18-0.656,4.203-1.783,5.889c-0.521,0.779-1.145,1.486-1.85,2.104
	c-0.512,0.447-1.067,0.846-1.658,1.188c-1.563,0.907-3.378,1.428-5.314,1.428c-1.843,0-3.576-0.473-5.086-1.299
	c0.826,1.51,1.299,3.244,1.299,5.086c0,1.18-0.192,2.313-0.549,3.373c-0.395,1.176-0.99,2.262-1.744,3.215
	c-0.795,1-1.766,1.854-2.865,2.515C28.855,49.451,26.992,50,25,50c-1.747,0-3.395-0.422-4.848-1.17
	c-1.152-0.594-2.182-1.391-3.041-2.346c-0.881-0.979-1.582-2.125-2.052-3.383c-0.431-1.154-0.666-2.404-0.666-3.707
	c0-1.844,0.47-3.576,1.297-5.086c-1.51,0.826-3.242,1.297-5.084,1.297c-1.266,0-2.479-0.221-3.605-0.629
	c-1.189-0.43-2.279-1.064-3.227-1.863c-1.025-0.864-1.885-1.92-2.523-3.111C0.453,28.512,0,26.809,0,25
	c0-1.551,0.333-3.023,0.931-4.351c0.646-1.435,1.601-2.699,2.781-3.709c1.052-0.901,2.283-1.6,3.633-2.035
	c1.028-0.332,2.124-0.512,3.262-0.512c1.842,0,3.574,0.471,5.083,1.297c-0.826-1.509-1.296-3.242-1.296-5.084
	c0-1.369,0.259-2.677,0.731-3.878c0.419-1.065,1.004-2.045,1.725-2.909c0.651-0.781,1.412-1.467,2.258-2.033
	C20.794,0.658,22.82,0,25,0z"/>
<rect fill="none" width="50" height="50"/>
</svg>
