<?xml version="1.0" encoding="utf-8"?>
<!-- Generator: Adobe Illustrator 16.0.0, SVG Export Plug-In . SVG Version: 6.00 Build 0)  -->
<!DOCTYPE svg PUBLIC "-//W3C//DTD SVG 1.1//EN" "http://www.w3.org/Graphics/SVG/1.1/DTD/svg11.dtd">
<svg version="1.1" id="Layer_1" xmlns="http://www.w3.org/2000/svg" xmlns:xlink="http://www.w3.org/1999/xlink" x="0px" y="0px"
	 width="50px" height="50px" viewBox="-6.5 -2.5 50 50" enable-background="new -6.5 -2.5 50 50" xml:space="preserve">
<path fill="#8A70FF" d="M0.88,44.545v-2.494c3.122-0.615,4.683-1.311,4.683-2.086V4.966C3.922,5.171,2.361,5.399,0.88,5.649
	L0.436,2.505c1.641-0.41,3.51-0.763,5.605-1.06c2.097-0.319,4.262-0.558,6.494-0.718c2.233-0.182,4.353-0.273,6.357-0.273
	c5.309,0,9.582,1.037,12.817,3.11s4.854,5.07,4.854,8.989c0,2.37-0.468,4.443-1.401,6.221c-0.912,1.778-2.107,3.258-3.589,4.444
	c-1.458,1.184-3.03,2.072-4.717,2.664s-3.281,0.889-4.785,0.889c-1.048,0-2.073-0.08-3.076-0.238
	c-1.002-0.184-1.891-0.445-2.666-0.787l-1.06-3.588c0.935,0.434,1.755,0.719,2.461,0.856c0.729,0.113,1.493,0.17,2.29,0.17
	c1.321,0,2.587-0.319,3.794-0.958c1.207-0.66,2.199-1.663,2.974-3.007c0.774-1.367,1.162-3.122,1.162-5.264
	c0-3.236-1.025-5.685-3.076-7.349c-2.028-1.686-4.671-2.529-7.93-2.529c-0.433,0-0.889,0.011-1.367,0.034
	c-0.479,0-0.968,0.011-1.47,0.034v35.819c0,0.273,0.365,0.592,1.094,0.957c0.729,0.365,2.279,0.74,4.648,1.129v2.494H0.88z"/>
</svg>
