<?xml version="1.0" encoding="utf-8"?>
<!-- Generator: Adobe Illustrator 16.0.0, SVG Export Plug-In . SVG Version: 6.00 Build 0)  -->
<!DOCTYPE svg PUBLIC "-//W3C//DTD SVG 1.1//EN" "http://www.w3.org/Graphics/SVG/1.1/DTD/svg11.dtd">
<svg version="1.1" id="Layer_1" xmlns="http://www.w3.org/2000/svg" xmlns:xlink="http://www.w3.org/1999/xlink" x="0px" y="0px"
	 width="50px" height="50px" viewBox="-8 -3 50 50" enable-background="new -8 -3 50 50" xml:space="preserve">
<path fill="#8A70FF" d="M0.32,43.533v-2.495c3.122-0.615,4.683-1.31,4.683-2.085V5.081c0-0.273-0.376-0.615-1.128-1.025
	C3.146,3.646,1.961,3.281,0.32,2.962V0.467h17.944v2.495c-3.145,0.661-4.717,1.367-4.717,2.119v31.821
	c0,0.797,0.433,1.424,1.299,1.88c0.889,0.433,2.575,0.649,5.059,0.649h3.862c1.412,0,2.541-0.229,3.384-0.684
	s1.562-1.207,2.153-2.256c0.615-1.049,1.242-2.461,1.88-4.238l2.495,0.889c-0.113,1.299-0.262,2.678-0.444,4.136
	c-0.159,1.436-0.331,2.724-0.513,3.862s-0.33,1.938-0.444,2.393H0.32z"/>
</svg>
