<?xml version="1.0" encoding="utf-8"?>
<!-- Generator: Adobe Illustrator 16.0.0, SVG Export Plug-In . SVG Version: 6.00 Build 0)  -->
<!DOCTYPE svg PUBLIC "-//W3C//DTD SVG 1.1//EN" "http://www.w3.org/Graphics/SVG/1.1/DTD/svg11.dtd">
<svg version="1.1" id="Layer_1" xmlns="http://www.w3.org/2000/svg" xmlns:xlink="http://www.w3.org/1999/xlink" x="0px" y="0px"
	 width="50px" height="50px" viewBox="-4 -4 50 50" enable-background="new -4 -4 50 50" xml:space="preserve">
<path fill="#8A70FF" d="M21,0c1.848,0,3.641,0.239,5.349,0.688c1.46,0.384,2.858,0.92,4.176,1.592
	c2.392,1.219,4.52,2.884,6.273,4.885c1.537,1.754,2.787,3.766,3.676,5.962C41.458,15.558,42,18.215,42,21
	c0,2.844-0.565,5.555-1.589,8.028c-0.873,2.107-2.079,4.042-3.553,5.738c-1.925,2.216-4.307,4.024-6.999,5.278
	c-1.308,0.609-2.689,1.088-4.127,1.42C24.211,41.815,22.627,42,21,42c-1.73,0-3.412-0.21-5.021-0.604
	c-1.354-0.333-2.657-0.796-3.894-1.377c-2.544-1.194-4.81-2.884-6.672-4.945c-1.759-1.947-3.159-4.226-4.094-6.731
	C0.467,26.057,0,23.582,0,21c0-2.634,0.484-5.153,1.369-7.477c0.821-2.152,1.985-4.136,3.426-5.882
	c1.327-1.608,2.89-3.016,4.634-4.169c1.659-1.097,3.483-1.965,5.427-2.559C16.799,0.319,18.862,0,21,0z"/>
</svg>
