<?xml version="1.0" encoding="utf-8"?>
<!-- Generator: Adobe Illustrator 16.0.0, SVG Export Plug-In . SVG Version: 6.00 Build 0)  -->
<!DOCTYPE svg PUBLIC "-//W3C//DTD SVG 1.1//EN" "http://www.w3.org/Graphics/SVG/1.1/DTD/svg11.dtd">
<svg version="1.1" id="Layer_1" xmlns="http://www.w3.org/2000/svg" xmlns:xlink="http://www.w3.org/1999/xlink" x="0px" y="0px"
	 width="50px" height="50px" viewBox="-3 -3 50 50" enable-background="new -3 -3 50 50" xml:space="preserve">
<path fill="#8A70FF" d="M22,27.096c0,20.12-11.159,19.161-17.582,13.018c-2.045-1.955-3.61-4.436-4.182-6.93
	C-1.04,27.623,2.62,22,16.904,22C2.851,22-0.919,16.557,0.179,11.085C0.647,8.746,2.006,6.402,3.83,4.476
	C5.405,2.813,7.328,1.46,9.327,0.692C15.324-1.61,22,1.342,22,16.904C22,3.049,27.292-0.811,32.684,0.135
	c2.55,0.447,5.122,1.968,7.168,4.014c3.586,3.586,5.558,8.786,2.965,12.65C40.801,19.804,36.022,22,27.096,22
	c15.086,0,18.322,6.273,16.407,12.12c-0.56,1.708-1.558,3.379-2.829,4.847C34.524,46.068,22,48.411,22,27.096z"/>
</svg>
