<?xml version="1.0" encoding="utf-8"?>
<!-- Generator: Adobe Illustrator 16.0.0, SVG Export Plug-In . SVG Version: 6.00 Build 0)  -->
<!DOCTYPE svg PUBLIC "-//W3C//DTD SVG 1.1//EN" "http://www.w3.org/Graphics/SVG/1.1/DTD/svg11.dtd">
<svg version="1.1" id="Layer_1" xmlns="http://www.w3.org/2000/svg" xmlns:xlink="http://www.w3.org/1999/xlink" x="0px" y="0px"
	 width="50px" height="50px" viewBox="0 0 50 50" enable-background="new 0 0 50 50" xml:space="preserve">
<path fill="#8A70FF" d="M25,0c1.791,0,3.479,0.444,4.959,1.228c1.544,0.818,2.862,2.007,3.836,3.448
	c0.572,0.847,1.025,1.78,1.335,2.777s0.477,2.056,0.477,3.154c0,1.842-0.471,3.574-1.297,5.084c1.51-0.826,3.243-1.297,5.085-1.297
	c1.464,0,2.859,0.297,4.128,0.833c0.772,0.327,1.497,0.743,2.163,1.234s1.272,1.059,1.807,1.69C49.057,19.999,50,22.39,50,25
	c0,2.179-0.656,4.203-1.783,5.888c-0.521,0.78-1.145,1.487-1.85,2.104c-0.512,0.447-1.067,0.846-1.658,1.188
	c-1.563,0.907-3.378,1.427-5.314,1.427c-1.843,0-3.576-0.472-5.086-1.298c0.826,1.51,1.298,3.243,1.298,5.086
	c0,1.179-0.192,2.313-0.548,3.372c-0.395,1.177-0.99,2.263-1.745,3.215c-0.794,1.001-1.765,1.854-2.865,2.515
	C28.856,49.451,26.992,50,25,50c-1.747,0-3.395-0.422-4.848-1.17c-1.152-0.593-2.182-1.391-3.041-2.346
	c-0.881-0.979-1.582-2.124-2.052-3.382c-0.431-1.154-0.666-2.404-0.666-3.708c0-1.843,0.47-3.576,1.297-5.086
	c-1.51,0.826-3.242,1.298-5.084,1.298c-1.266,0-2.479-0.222-3.605-0.629c-1.189-0.43-2.279-1.065-3.227-1.864
	c-1.025-0.864-1.885-1.92-2.523-3.111C0.453,28.512,0,26.809,0,25c0-1.551,0.333-3.023,0.931-4.351
	c0.646-1.435,1.601-2.699,2.781-3.709c1.052-0.901,2.283-1.6,3.633-2.035c1.028-0.332,2.124-0.512,3.262-0.512
	c1.842,0,3.574,0.471,5.083,1.297c-0.826-1.509-1.296-3.242-1.296-5.084c0-1.369,0.259-2.677,0.731-3.878
	c0.419-1.065,1.004-2.045,1.725-2.909c0.651-0.781,1.412-1.467,2.258-2.033C20.794,0.658,22.82,0,25,0z"/>
</svg>
