<?xml version="1.0" encoding="utf-8"?>
<!-- Generator: Adobe Illustrator 16.0.0, SVG Export Plug-In . SVG Version: 6.00 Build 0)  -->
<!DOCTYPE svg PUBLIC "-//W3C//DTD SVG 1.1//EN" "http://www.w3.org/Graphics/SVG/1.1/DTD/svg11.dtd">
<svg version="1.1" id="Layer_1" xmlns="http://www.w3.org/2000/svg" xmlns:xlink="http://www.w3.org/1999/xlink" x="0px" y="0px"
	 width="50px" height="50px" viewBox="-3 -4 50 50" enable-background="new -3 -4 50 50" xml:space="preserve">
<path fill="#8A70FF" d="M36.064,0.155c-1.754-0.304-3.513-0.154-5.202,0.382c-1.483,0.47-2.913,1.238-4.238,2.258
	c-1.804,1.387-3.411,3.241-4.694,5.443c-1.225-2.102-2.737-3.885-4.431-5.25c-1.365-1.1-2.848-1.928-4.392-2.43
	c-1.703-0.554-3.48-0.712-5.258-0.403C4.593,0.722,2.359,2.827,1.13,5.811C0.674,6.918,0.356,8.147,0.176,9.464
	c-0.234,1.714-0.234,3.576-0.003,5.512c0.227,1.904,0.678,3.879,1.352,5.855c0.977,2.869,2.251,5.386,3.687,7.586
	c0.922,1.412,1.91,2.694,2.929,3.854c1.087,1.238,2.209,2.339,3.321,3.311c1.513,1.322,3.009,2.409,4.377,3.288
	c3.488,2.24,6.147,3.13,6.147,3.13c0,0,2.474-0.824,5.782-2.885c1.343-0.837,2.822-1.877,4.33-3.148
	c1.326-1.118,2.673-2.416,3.967-3.911c1.175-1.356,2.305-2.875,3.335-4.571c1.197-1.972,2.261-4.183,3.102-6.654
	c0.709-2.08,1.166-4.159,1.372-6.155c0.214-2.065,0.158-4.042-0.166-5.839c-0.274-1.518-0.741-2.907-1.4-4.111
	C40.99,2.32,38.91,0.65,36.064,0.155z"/>
</svg>
