<?xml version="1.0" encoding="utf-8"?>
<!-- Generator: Adobe Illustrator 16.0.0, SVG Export Plug-In . SVG Version: 6.00 Build 0)  -->
<!DOCTYPE svg PUBLIC "-//W3C//DTD SVG 1.1//EN" "http://www.w3.org/Graphics/SVG/1.1/DTD/svg11.dtd">
<svg version="1.1" id="Layer_1" xmlns="http://www.w3.org/2000/svg" xmlns:xlink="http://www.w3.org/1999/xlink" x="0px" y="0px"
	 width="50px" height="50px" viewBox="-9 -3 50 50" enable-background="new -9 -3 50 50" xml:space="preserve">
<path fill="#8A70FF" d="M0.123,43.533v-2.495c3.122-0.615,4.683-1.31,4.683-2.085V5.081c0-0.273-0.376-0.615-1.128-1.025
	c-0.729-0.41-1.914-0.775-3.555-1.094V0.467h30.454l1.299,1.094c-0.022,0.775-0.114,1.8-0.273,3.076
	c-0.137,1.276-0.308,2.518-0.513,3.726c-0.182,1.208-0.365,2.108-0.547,2.7h-2.632c-0.137-4.33-1.071-6.494-2.803-6.494H13.351
	v13.843h12.544l1.23,1.196c-0.434,0.775-0.957,1.595-1.572,2.461c-0.615,0.866-1.162,1.48-1.641,1.846
	c-0.66-0.66-1.48-1.14-2.461-1.436c-0.957-0.296-2.381-0.444-4.272-0.444h-3.828v16.919c0,0.273,0.399,0.581,1.196,0.923
	c0.798,0.342,2.313,0.729,4.546,1.162v2.495H0.123z"/>
</svg>
