<?xml version="1.0" encoding="utf-8"?>
<!-- Generator: Adobe Illustrator 16.0.0, SVG Export Plug-In . SVG Version: 6.00 Build 0)  -->
<!DOCTYPE svg PUBLIC "-//W3C//DTD SVG 1.1//EN" "http://www.w3.org/Graphics/SVG/1.1/DTD/svg11.dtd">
<svg version="1.1" id="Layer_1" xmlns="http://www.w3.org/2000/svg" xmlns:xlink="http://www.w3.org/1999/xlink" x="0px" y="0px"
	 width="50px" height="50px" viewBox="0 0 50 50" enable-background="new 0 0 50 50" xml:space="preserve">
<path fill="#8A70FF" d="M9.123,46.533v-2.495c3.122-0.615,4.684-1.31,4.684-2.085V8.081c0-0.273-0.376-0.615-1.128-1.025
	c-0.729-0.41-1.914-0.775-3.556-1.094V3.467h30.454l1.299,1.094c-0.022,0.775-0.114,1.8-0.272,3.076
	c-0.138,1.276-0.309,2.518-0.514,3.726c-0.182,1.208-0.365,2.108-0.547,2.7h-2.632c-0.138-4.33-1.071-6.494-2.803-6.494H22.352
	v13.844h12.543l1.23,1.195c-0.434,0.775-0.957,1.596-1.572,2.461c-0.614,0.866-1.161,1.48-1.641,1.847
	c-0.66-0.66-1.479-1.141-2.461-1.437c-0.957-0.296-2.381-0.443-4.271-0.443h-3.828v16.919c0,0.272,0.398,0.581,1.195,0.923
	c0.799,0.342,2.313,0.729,4.546,1.162v2.495L9.123,46.533L9.123,46.533z"/>
<rect fill="none" width="50" height="50"/>
</svg>
