<?xml version="1.0" encoding="utf-8"?>
<!-- Generator: Adobe Illustrator 16.0.0, SVG Export Plug-In . SVG Version: 6.00 Build 0)  -->
<!DOCTYPE svg PUBLIC "-//W3C//DTD SVG 1.1//EN" "http://www.w3.org/Graphics/SVG/1.1/DTD/svg11.dtd">
<svg version="1.1" id="Layer_1" xmlns="http://www.w3.org/2000/svg" xmlns:xlink="http://www.w3.org/1999/xlink" x="0px" y="0px"
	 width="50px" height="50px" viewBox="0 0 50 50" enable-background="new 0 0 50 50" xml:space="preserve">
<path fill="#8A70FF" d="M39.064,4.155c-1.754-0.304-3.514-0.154-5.203,0.382c-1.482,0.47-2.912,1.238-4.238,2.258
	c-1.805,1.388-3.411,3.241-4.694,5.443c-1.225-2.102-2.737-3.885-4.431-5.25c-1.365-1.1-2.848-1.928-4.392-2.43
	c-1.703-0.555-3.48-0.712-5.258-0.403c-3.256,0.567-5.49,2.672-6.719,5.656c-0.456,1.106-0.774,2.336-0.954,3.652
	c-0.234,1.715-0.234,3.576-0.003,5.513c0.227,1.903,0.678,3.879,1.352,5.854c0.977,2.869,2.251,5.386,3.687,7.586
	c0.922,1.412,1.91,2.694,2.929,3.854c1.087,1.237,2.209,2.338,3.321,3.311c1.513,1.322,3.009,2.409,4.377,3.288
	c3.488,2.239,6.147,3.13,6.147,3.13s2.474-0.824,5.783-2.885c1.344-0.838,2.822-1.877,4.33-3.148
	c1.326-1.117,2.674-2.416,3.967-3.91c1.176-1.356,2.305-2.875,3.336-4.572c1.197-1.971,2.26-4.182,3.102-6.653
	c0.709-2.08,1.166-4.159,1.371-6.154c0.215-2.065,0.158-4.042-0.166-5.84c-0.273-1.518-0.74-2.906-1.398-4.11
	C43.99,6.32,41.91,4.65,39.064,4.155z"/>
<rect fill="none" width="50" height="50"/>
</svg>
