<?xml version="1.0" encoding="utf-8"?>
<!-- Generator: Adobe Illustrator 16.0.0, SVG Export Plug-In . SVG Version: 6.00 Build 0)  -->
<!DOCTYPE svg PUBLIC "-//W3C//DTD SVG 1.1//EN" "http://www.w3.org/Graphics/SVG/1.1/DTD/svg11.dtd">
<svg version="1.1" id="Layer_1" xmlns="http://www.w3.org/2000/svg" xmlns:xlink="http://www.w3.org/1999/xlink" x="0px" y="0px"
	 width="50px" height="50px" viewBox="-5 -3 50 50" enable-background="new -5 -3 50 50" xml:space="preserve">
<path fill="#8A70FF" d="M10.532,43.533v-2.495c2.096-0.433,3.509-0.866,4.238-1.299c0.729-0.456,1.094-0.843,1.094-1.162V4.568
	H7.183c-0.707,0-1.344,0.524-1.914,1.572s-1.367,2.905-2.393,5.571l-2.495-0.923C0.449,9.9,0.563,8.807,0.723,7.508
	c0.16-1.322,0.331-2.621,0.513-3.896c0.182-1.299,0.353-2.347,0.513-3.145H38.32l1.299,1.094C39.596,2.335,39.517,3.315,39.38,4.5
	c-0.137,1.162-0.308,2.37-0.513,3.623c-0.182,1.23-0.365,2.324-0.547,3.281h-2.563c-0.433-2.119-0.786-3.783-1.06-4.99
	c-0.25-1.23-0.865-1.846-1.846-1.846h-8.442v34.009c0,0.296,0.364,0.673,1.094,1.128c0.752,0.455,2.177,0.9,4.272,1.333v2.495
	H10.532z"/>
</svg>
