<?xml version="1.0" encoding="utf-8"?>
<!-- Generator: Adobe Illustrator 16.0.0, SVG Export Plug-In . SVG Version: 6.00 Build 0)  -->
<!DOCTYPE svg PUBLIC "-//W3C//DTD SVG 1.1//EN" "http://www.w3.org/Graphics/SVG/1.1/DTD/svg11.dtd">
<svg version="1.1" id="Layer_1" xmlns="http://www.w3.org/2000/svg" xmlns:xlink="http://www.w3.org/1999/xlink" x="0px" y="0px"
	 width="50px" height="50px" viewBox="0 0 50 50" enable-background="new 0 0 50 50" xml:space="preserve">
<path fill="#8A70FF" d="M25,4c1.848,0,3.641,0.239,5.35,0.688c1.459,0.384,2.857,0.92,4.176,1.592
	c2.392,1.219,4.52,2.884,6.272,4.885c1.537,1.754,2.787,3.766,3.677,5.962C45.458,19.558,46,22.215,46,25
	c0,2.844-0.564,5.555-1.589,8.027c-0.873,2.107-2.079,4.043-3.554,5.738c-1.924,2.217-4.307,4.024-6.998,5.278
	c-1.309,0.608-2.689,1.088-4.127,1.42C28.211,45.814,26.627,46,25,46c-1.73,0-3.412-0.21-5.021-0.604
	c-1.354-0.334-2.657-0.797-3.894-1.377c-2.544-1.194-4.81-2.885-6.672-4.945c-1.759-1.947-3.159-4.227-4.094-6.73
	C4.467,30.057,4,27.582,4,25c0-2.634,0.484-5.153,1.369-7.477c0.821-2.152,1.985-4.136,3.426-5.882
	c1.327-1.608,2.89-3.016,4.634-4.169c1.659-1.097,3.483-1.965,5.427-2.559C20.799,4.319,22.862,4,25,4z"/>
<rect fill="none" width="50" height="50"/>
</svg>
