<?xml version="1.0" encoding="utf-8"?>
<!-- Generator: Adobe Illustrator 16.0.0, SVG Export Plug-In . SVG Version: 6.00 Build 0)  -->
<!DOCTYPE svg PUBLIC "-//W3C//DTD SVG 1.1//EN" "http://www.w3.org/Graphics/SVG/1.1/DTD/svg11.dtd">
<svg version="1.1" id="Layer_1" xmlns="http://www.w3.org/2000/svg" xmlns:xlink="http://www.w3.org/1999/xlink" x="0px" y="0px"
	 width="50px" height="50px" viewBox="0 0 50 50" enable-background="new 0 0 50 50" xml:space="preserve">
<path fill="#8A70FF" d="M7.381,47.045v-2.494c3.122-0.615,4.683-1.311,4.683-2.086V7.466c-1.641,0.205-3.202,0.434-4.683,0.684
	L6.937,5.005c1.641-0.409,3.51-0.763,5.605-1.06c2.097-0.319,4.262-0.558,6.494-0.718c2.233-0.183,4.353-0.273,6.357-0.273
	c5.308,0,9.582,1.037,12.816,3.11s4.854,5.069,4.854,8.989c0,2.369-0.467,4.442-1.4,6.221c-0.912,1.778-2.107,3.258-3.588,4.444
	c-1.459,1.184-3.031,2.071-4.719,2.663c-1.686,0.593-3.279,0.89-4.783,0.89c-1.049,0-2.073-0.08-3.076-0.238
	c-1.002-0.184-1.891-0.445-2.666-0.787l-1.06-3.588c0.935,0.434,1.755,0.719,2.461,0.856c0.729,0.112,1.494,0.17,2.291,0.17
	c1.32,0,2.586-0.319,3.793-0.958c1.207-0.66,2.199-1.663,2.975-3.007c0.773-1.367,1.162-3.122,1.162-5.265
	c0-3.235-1.025-5.685-3.076-7.349c-2.027-1.687-4.671-2.529-7.93-2.529c-0.433,0-0.889,0.011-1.367,0.034
	c-0.479,0-0.968,0.011-1.47,0.034v35.818c0,0.272,0.365,0.593,1.094,0.957c0.729,0.365,2.279,0.74,4.647,1.129v2.494L7.381,47.045
	L7.381,47.045z"/>
<rect fill="none" width="50" height="50"/>
</svg>
