<?xml version="1.0" encoding="utf-8"?>
<!-- Generator: Adobe Illustrator 16.0.0, SVG Export Plug-In . SVG Version: 6.00 Build 0)  -->
<!DOCTYPE svg PUBLIC "-//W3C//DTD SVG 1.1//EN" "http://www.w3.org/Graphics/SVG/1.1/DTD/svg11.dtd">
<svg version="1.1" id="Layer_1" xmlns="http://www.w3.org/2000/svg" xmlns:xlink="http://www.w3.org/1999/xlink" x="0px" y="0px"
	 width="50px" height="50px" viewBox="-4 -2.5 50 50" enable-background="new -4 -2.5 50 50" xml:space="preserve">
<path fill="#8A70FF" d="M32.041,44.785c-0.639,0-1.275-0.182-1.914-0.547c-0.639-0.387-1.117-0.832-1.436-1.333l-9.811-18.628
	c-0.228,0.023-0.456,0.034-0.684,0.034c-0.205,0-0.421,0-0.649,0c-0.57,0-1.162-0.022-1.777-0.068
	c-0.592-0.068-1.208-0.171-1.846-0.308v15.791c0,0.273,0.365,0.615,1.094,1.025c0.752,0.387,1.959,0.74,3.623,1.06v2.495H0.697
	v-2.495c3.122-0.615,4.683-1.31,4.683-2.085V4.761C4.56,4.852,3.75,4.955,2.953,5.068C2.178,5.182,1.426,5.296,0.697,5.41
	L0.253,2.266c2.393-0.524,5.013-0.991,7.861-1.401c2.871-0.433,5.936-0.649,9.194-0.649c4.125,0,7.441,0.456,9.947,1.367
	c2.529,0.912,4.363,2.153,5.502,3.726c1.162,1.549,1.744,3.304,1.744,5.264c0,3.122-0.889,5.753-2.666,7.896
	c-1.754,2.119-4.045,3.668-6.871,4.648l10.768,14.902c0.729,0.957,1.447,1.572,2.152,1.846c0.707,0.25,1.824,0.308,3.35,0.171
	l0.514,2.495c-1.002,0.318-2.154,0.66-3.453,1.025c-1.275,0.342-2.494,0.627-3.656,0.854C33.5,44.66,32.633,44.785,32.041,44.785z
	 M16.967,20.415c3.076,0,5.332-0.775,6.768-2.324s2.154-3.703,2.154-6.46c0-1.413-0.297-2.711-0.889-3.896s-1.617-2.13-3.076-2.837
	c-1.459-0.707-3.499-1.06-6.119-1.06c-0.296,0-0.604,0.011-0.923,0.034c-0.319,0-0.638,0.011-0.957,0.034v16.27
	c0.615,0.091,1.151,0.16,1.606,0.205C15.987,20.404,16.465,20.415,16.967,20.415z"/>
</svg>
