<?xml version="1.0" encoding="utf-8"?>
<!-- Generator: Adobe Illustrator 16.0.0, SVG Export Plug-In . SVG Version: 6.00 Build 0)  -->
<!DOCTYPE svg PUBLIC "-//W3C//DTD SVG 1.1//EN" "http://www.w3.org/Graphics/SVG/1.1/DTD/svg11.dtd">
<svg version="1.1" id="Layer_1" xmlns="http://www.w3.org/2000/svg" xmlns:xlink="http://www.w3.org/1999/xlink" x="0px" y="0px"
	 width="50px" height="50px" viewBox="0 0 50 50" enable-background="new 0 0 50 50" xml:space="preserve">
<path fill="#8A70FF" d="M25,30.096c0,6.453-1.146,10.738-2.918,13.379c-1.643,2.447-3.817,3.482-6.111,3.523
	c-2.521,0.046-5.185-1.107-7.438-2.908C5.378,41.568,3.028,37.779,3,34.238c-0.018-2.23,0.888-4.363,3.096-6.016
	C8.692,26.279,13.089,25,19.904,25c-6.371,0-10.628-1.119-13.277-2.852c-2.588-1.693-3.64-3.974-3.627-6.37
	c0.018-3.18,1.912-6.563,4.583-9.05C9.965,4.513,12.962,3.01,15.797,3c3.315-0.012,6.406,2.02,8.025,7.344
	C24.567,12.793,25,15.939,25,19.904c0-3.762,0.391-6.787,1.067-9.178c1.004-3.554,2.641-5.71,4.566-6.811
	c3.99-2.278,9.229-0.027,12.693,3.73c3.041,3.301,4.713,7.764,2.961,11.337c-0.971,1.974-2.98,3.676-6.381,4.761
	C37.424,24.536,34.199,25,30.096,25c4.916,0,8.574,0.666,11.205,1.768c3.328,1.393,5.014,3.479,5.527,5.791
	c0.789,3.563-1.207,7.662-4.273,10.582c-2.385,2.271-5.416,3.825-8.287,3.858c-1.965,0.022-3.854-0.669-5.408-2.333
	C26.564,42.209,25,37.63,25,30.096z"/>
<rect x="-3" y="-3" fill="none" width="50" height="50"/>
<rect fill="none" width="50" height="50"/>
</svg>
