<?xml version="1.0" encoding="utf-8"?>
<!-- Generator: Adobe Illustrator 16.0.0, SVG Export Plug-In . SVG Version: 6.00 Build 0)  -->
<!DOCTYPE svg PUBLIC "-//W3C//DTD SVG 1.1//EN" "http://www.w3.org/Graphics/SVG/1.1/DTD/svg11.dtd">
<svg version="1.1" id="Layer_1" xmlns="http://www.w3.org/2000/svg" xmlns:xlink="http://www.w3.org/1999/xlink" x="0px" y="0px"
	 width="50px" height="50px" viewBox="-3 -4 50 50" enable-background="new -3 -4 50 50" xml:space="preserve">
<path fill="#8A70FF" d="M36.064,0.155c-1.512-0.263-3.028-0.187-4.5,0.182c-1.338,0.336-2.641,0.915-3.87,1.704
	c-1.187,0.761-2.306,1.719-3.323,2.842c-0.9,0.995-1.722,2.12-2.441,3.355c-0.704-1.208-1.503-2.312-2.377-3.291
	c-0.916-1.026-1.914-1.915-2.971-2.645c-1.154-0.798-2.379-1.406-3.643-1.797c-1.652-0.51-3.371-0.648-5.089-0.351
	C5.884,0.497,4.291,1.399,3.067,2.717c-1.224,1.317-2.08,3.049-2.571,5.052c-0.443,1.809-0.589,3.837-0.439,5.979
	c0.084,1.211,0.263,2.458,0.535,3.723c0.239,1.111,0.55,2.236,0.933,3.36c0.755,2.22,1.689,4.23,2.739,6.045
	c1.229,2.128,2.618,3.988,4.062,5.606c2.159,2.42,4.444,4.3,6.516,5.725C18.807,40.938,21.985,42,21.985,42
	c0,0,2.771-0.924,6.368-3.258c2.429-1.576,5.233-3.797,7.817-6.811c1.424-1.661,2.781-3.564,3.971-5.733
	c0.896-1.634,1.697-3.42,2.359-5.368c0.369-1.082,0.67-2.163,0.902-3.232c0.291-1.337,0.476-2.657,0.554-3.935
	c0.175-2.846-0.177-5.489-1.057-7.677c-0.616-1.535-1.492-2.846-2.628-3.846C39.131,1.136,37.729,0.444,36.064,0.155z"/>
</svg>
