<?xml version="1.0" encoding="utf-8"?>
<!-- Generator: Adobe Illustrator 16.0.0, SVG Export Plug-In . SVG Version: 6.00 Build 0)  -->
<!DOCTYPE svg PUBLIC "-//W3C//DTD SVG 1.1//EN" "http://www.w3.org/Graphics/SVG/1.1/DTD/svg11.dtd">
<svg version="1.1" id="Layer_1" xmlns="http://www.w3.org/2000/svg" xmlns:xlink="http://www.w3.org/1999/xlink" x="0px" y="0px"
	 width="50px" height="50px" viewBox="0 0 50 50" enable-background="new 0 0 50 50" xml:space="preserve">
<path fill="#8A70FF" d="M36.041,47.285c-0.639,0-1.275-0.182-1.914-0.547c-0.639-0.387-1.117-0.832-1.437-1.334l-9.811-18.629
	c-0.228,0.023-0.456,0.035-0.684,0.035c-0.205,0-0.421,0-0.649,0c-0.57,0-1.162-0.021-1.777-0.068
	c-0.592-0.068-1.208-0.172-1.846-0.309v15.793c0,0.271,0.365,0.613,1.094,1.023c0.752,0.389,1.959,0.74,3.623,1.061v2.496H4.696
	v-2.496C7.818,43.695,9.379,43,9.379,42.227V7.261C8.56,7.352,7.75,7.455,6.953,7.567C6.178,7.682,5.425,7.795,4.696,7.91
	L4.252,4.766c2.393-0.524,5.013-0.991,7.861-1.401c2.871-0.433,5.936-0.649,9.194-0.649c4.125,0,7.441,0.456,9.947,1.367
	c2.529,0.912,4.363,2.153,5.502,3.726c1.162,1.549,1.744,3.304,1.744,5.264c0,3.122-0.89,5.753-2.666,7.896
	c-1.754,2.119-4.045,3.667-6.871,4.648L39.732,40.52c0.729,0.957,1.447,1.57,2.151,1.846c0.707,0.25,1.824,0.307,3.351,0.17
	l0.514,2.496c-1.002,0.318-2.154,0.66-3.453,1.025c-1.275,0.342-2.494,0.627-3.656,0.854C37.5,47.16,36.633,47.285,36.041,47.285z
	 M20.966,22.915c3.076,0,5.332-0.775,6.768-2.324c1.437-1.549,2.153-3.703,2.153-6.46c0-1.413-0.297-2.711-0.889-3.896
	s-1.617-2.13-3.076-2.837c-1.458-0.707-3.499-1.06-6.118-1.06c-0.296,0-0.604,0.011-0.923,0.034c-0.319,0-0.638,0.011-0.957,0.034
	v16.27c0.615,0.091,1.151,0.16,1.606,0.205C19.986,22.903,20.464,22.915,20.966,22.915z"/>
<rect fill="none" width="50" height="50"/>
</svg>
