<?xml version="1.0" encoding="utf-8"?>
<!-- Generator: Adobe Illustrator 16.0.0, SVG Export Plug-In . SVG Version: 6.00 Build 0)  -->
<!DOCTYPE svg PUBLIC "-//W3C//DTD SVG 1.1//EN" "http://www.w3.org/Graphics/SVG/1.1/DTD/svg11.dtd">
<svg version="1.1" id="Layer_1" xmlns="http://www.w3.org/2000/svg" xmlns:xlink="http://www.w3.org/1999/xlink" x="0px" y="0px"
	 width="50px" height="50px" viewBox="0 0 50 50" enable-background="new 0 0 50 50" xml:space="preserve">
<path fill="#8A70FF" d="M24.026,47.559c-2.871,0-5.458-0.592-7.759-1.777c-2.279-1.206-4.229-2.836-5.846-4.887
	c-1.596-2.051-2.825-4.387-3.69-7.008c-0.844-2.643-1.266-5.4-1.266-8.271c0-3.098,0.501-6.038,1.505-8.817
	c1.002-2.803,2.414-5.275,4.237-7.417c1.847-2.165,4.021-3.862,6.528-5.093c2.506-1.23,5.264-1.846,8.271-1.846
	c3.008,0,5.663,0.615,7.964,1.846s4.238,2.894,5.812,4.99c1.571,2.074,2.758,4.42,3.555,7.041s1.196,5.321,1.196,8.101
	c0,3.1-0.547,6.038-1.641,8.818c-1.072,2.779-2.553,5.252-4.443,7.416c-1.893,2.144-4.079,3.828-6.563,5.06
	C29.427,46.943,26.808,47.559,24.026,47.559z M25.53,42.943c3.008,0,5.491-1.469,7.45-4.408c1.961-2.963,2.939-7.463,2.939-13.501
	c0-3.145-0.488-6.095-1.47-8.853c-0.981-2.758-2.349-4.99-4.102-6.699c-1.732-1.732-3.771-2.598-6.118-2.598
	c-3.281,0-5.788,1.561-7.521,4.683c-1.731,3.122-2.598,7.474-2.598,13.057c0,3.396,0.513,6.483,1.538,9.263
	c1.048,2.779,2.438,4.99,4.17,6.631C21.555,42.135,23.456,42.943,25.53,42.943z"/>
<rect fill="none" width="50" height="50"/>
</svg>
