<?xml version="1.0" encoding="utf-8"?>
<!-- Generator: Adobe Illustrator 16.0.0, SVG Export Plug-In . SVG Version: 6.00 Build 0)  -->
<!DOCTYPE svg PUBLIC "-//W3C//DTD SVG 1.1//EN" "http://www.w3.org/Graphics/SVG/1.1/DTD/svg11.dtd">
<svg version="1.1" id="Layer_1" xmlns="http://www.w3.org/2000/svg" xmlns:xlink="http://www.w3.org/1999/xlink" x="0px" y="0px"
	 width="50px" height="50px" viewBox="0 0 50 50" enable-background="new 0 0 50 50" xml:space="preserve">
<path fill="#8A70FF" d="M25,0c2.752,0,5.259,1.048,7.143,2.766c1.035,0.943,1.883,2.088,2.48,3.374
	c0.631,1.357,0.982,2.871,0.982,4.467c0,1.842-0.471,3.574-1.297,5.084c1.51-0.826,3.243-1.297,5.086-1.297
	c1.069,0,2.104,0.159,3.076,0.454c1.657,0.501,3.145,1.398,4.35,2.58C48.782,19.353,50,22.034,50,25
	c0,2.377-0.782,4.572-2.104,6.342c-0.815,1.092-1.838,2.021-3.006,2.73c-1.604,0.973-3.484,1.533-5.496,1.533
	c-1.844,0-3.576-0.472-5.086-1.297c0.825,1.51,1.297,3.242,1.297,5.086c0,2.483-0.854,4.77-2.285,6.576
	c-0.932,1.176-2.106,2.149-3.449,2.846C28.413,49.572,26.757,50,25,50c-2.138,0-4.128-0.633-5.794-1.723
	c-0.761-0.496-1.454-1.088-2.062-1.758c-1.709-1.883-2.75-4.383-2.75-7.125c0-1.844,0.47-3.576,1.297-5.086
	c-1.51,0.826-3.242,1.297-5.084,1.297c-2.461,0-4.727-0.838-6.526-2.244c-0.871-0.682-1.632-1.494-2.254-2.41
	C0.673,29.254,0,27.205,0,25c0-1.784,0.44-3.465,1.218-4.939c0.413-0.783,0.921-1.508,1.508-2.159
	c1.941-2.154,4.752-3.508,7.88-3.508c1.842,0,3.574,0.471,5.083,1.297c-0.826-1.509-1.296-3.242-1.296-5.084
	c0-1.661,0.382-3.232,1.063-4.632c0.415-0.853,0.94-1.642,1.558-2.348C18.958,1.404,21.815,0,25,0z"/>
<rect fill="none" width="50" height="50"/>
</svg>
