<?xml version="1.0" encoding="utf-8"?>
<!-- Generator: Adobe Illustrator 16.0.0, SVG Export Plug-In . SVG Version: 6.00 Build 0)  -->
<!DOCTYPE svg PUBLIC "-//W3C//DTD SVG 1.1//EN" "http://www.w3.org/Graphics/SVG/1.1/DTD/svg11.dtd">
<svg version="1.1" id="Layer_1" xmlns="http://www.w3.org/2000/svg" xmlns:xlink="http://www.w3.org/1999/xlink" x="0px" y="0px"
	 width="50px" height="50px" viewBox="0 0 50 50" enable-background="new 0 0 50 50" xml:space="preserve">
<path fill="#8A70FF" d="M8.32,46.533v-2.495c3.122-0.615,4.683-1.31,4.683-2.085V8.081c0-0.273-0.376-0.615-1.128-1.025
	c-0.729-0.41-1.914-0.775-3.555-1.094V3.467h17.944v2.495c-3.145,0.661-4.717,1.367-4.717,2.119v31.821
	c0,0.797,0.433,1.424,1.299,1.879c0.889,0.434,2.575,0.65,5.058,0.65h3.863c1.412,0,2.541-0.229,3.383-0.685
	c0.844-0.455,1.563-1.207,2.154-2.256c0.614-1.05,1.241-2.462,1.879-4.238l2.496,0.89c-0.113,1.299-0.263,2.678-0.445,4.135
	c-0.158,1.437-0.33,2.725-0.512,3.863c-0.183,1.137-0.33,1.938-0.445,2.393H8.32z"/>
<rect fill="none" width="50" height="50"/>
</svg>
