<?xml version="1.0" encoding="utf-8"?>
<!-- Generator: Adobe Illustrator 16.0.0, SVG Export Plug-In . SVG Version: 6.00 Build 0)  -->
<!DOCTYPE svg PUBLIC "-//W3C//DTD SVG 1.1//EN" "http://www.w3.org/Graphics/SVG/1.1/DTD/svg11.dtd">
<svg version="1.1" id="Layer_1" xmlns="http://www.w3.org/2000/svg" xmlns:xlink="http://www.w3.org/1999/xlink" x="0px" y="0px"
	 width="50px" height="50px" viewBox="0 0 50 50" enable-background="new 0 0 50 50" xml:space="preserve">
<path fill="#8A70FF" d="M25,30.096c0,20.121-11.159,19.162-17.582,13.018c-2.045-1.953-3.61-4.436-4.182-6.93
	C1.96,30.623,5.62,25.001,19.904,25.001c-14.053,0-17.823-5.443-16.725-10.915c0.468-2.339,1.827-4.683,3.651-6.609
	c1.575-1.663,3.498-3.016,5.497-3.784C18.324,1.391,25,4.343,25,19.905C25,6.05,30.292,2.19,35.684,3.136
	c2.551,0.447,5.123,1.968,7.168,4.014c3.586,3.586,5.559,8.786,2.965,12.65c-2.016,3.005-6.795,5.201-15.721,5.201
	c15.086,0,18.322,6.272,16.407,12.12c-0.56,1.707-1.558,3.379-2.829,4.846C37.523,49.068,25,51.412,25,30.096z"/>
<rect fill="none" width="50" height="50"/>
</svg>
