<svg width="56" height="56" viewBox="0 0 56 56" fill="none" xmlns="http://www.w3.org/2000/svg">
<path d="M21.5391 27.6375C21.5391 27.6375 21.5391 27.6405 21.5391 27.6423L21.1315 29.353C21.1095 29.4498 21.0096 29.5208 20.8941 29.5208H20.4022C20.3658 29.5208 20.3331 29.5442 20.3231 29.5778C19.869 31.0679 19.254 32.0922 18.4419 32.7071C17.751 33.2307 16.8993 33.4748 15.7618 33.4748C14.7392 33.4748 14.0502 33.1568 13.4654 32.5292C12.6928 31.6997 12.3731 30.3418 12.5666 28.7057C12.9158 25.6341 14.5627 22.5348 17.7353 22.5348C18.7001 22.5264 19.4576 22.8144 19.9846 23.389C20.5417 23.9967 20.8249 24.9122 20.8262 26.1101C20.8243 26.2189 20.7308 26.3067 20.6183 26.3067H18.2943C18.212 26.3067 18.1385 26.2352 18.1398 26.1564C18.1209 25.3281 17.8666 24.9242 17.3616 24.9242C16.4709 24.9242 15.9452 26.0939 15.6663 26.7425C15.2769 27.6483 15.079 28.6318 15.118 29.6115C15.1362 30.0678 15.2122 30.7091 15.66 30.9748C16.057 31.2104 16.6235 31.0541 16.9665 30.7933C17.3094 30.5324 17.5852 30.081 17.7014 29.6692C17.7177 29.6121 17.719 29.5677 17.7033 29.5478C17.6869 29.5274 17.6417 29.5226 17.6072 29.5226H17.0105C16.9464 29.5226 16.8829 29.4943 16.8446 29.4486C16.8126 29.4101 16.8 29.3627 16.8113 29.3158L17.2196 27.602C17.2397 27.5143 17.322 27.4482 17.4231 27.4362V27.4319H21.3394C21.3488 27.4319 21.3582 27.4319 21.367 27.4338C21.4688 27.4464 21.5404 27.5378 21.5385 27.6375H21.5391Z" fill="#000000"/>
<path d="M28.2824 25.6714C28.2805 25.7784 28.1869 25.8661 28.0745 25.8661H25.9339C25.7938 25.8661 25.6764 25.7561 25.6764 25.6221C25.6764 25.018 25.4603 24.724 25.0182 24.724C24.5759 24.724 24.2908 24.9867 24.2826 25.4454C24.2732 25.9569 24.5722 26.4215 25.4239 27.2204C26.5451 28.2374 26.9941 29.1385 26.9728 30.3292C26.9376 32.2551 25.5834 33.5 23.5232 33.5C22.4711 33.5 21.6672 33.2277 21.1327 32.691C20.59 32.1457 20.3412 31.3457 20.3934 30.313C20.3959 30.206 20.4888 30.1189 20.6013 30.1189H22.8154C22.8757 30.1189 22.9353 30.1471 22.9755 30.1952C23.0101 30.2367 23.0245 30.2878 23.0157 30.3359C22.9912 30.7085 23.0584 30.9868 23.2098 31.1407C23.3072 31.2405 23.4422 31.291 23.6112 31.291C24.0201 31.291 24.26 31.0115 24.2688 30.5246C24.2763 30.1038 24.1388 29.7348 23.3888 28.9888C22.4203 28.0733 21.5516 27.1278 21.5786 25.6407C21.5943 24.7787 21.9486 23.9901 22.5761 23.4203C23.2393 22.818 24.147 22.5 25.2003 22.5C26.2555 22.5072 27.0551 22.7981 27.577 23.365C28.0714 23.9023 28.3094 24.6784 28.2831 25.6714H28.2824Z" fill="#000000"/>
<path d="M34.9177 33.1375L34.9315 22.8955C34.9334 22.7879 34.8436 22.7002 34.7312 22.7002H31.4179C31.3067 22.7002 31.2577 22.7927 31.2257 22.854L26.4289 33.075V33.0769C26.4289 33.0769 26.4276 33.0786 26.427 33.0792C26.3736 33.2049 26.4747 33.3395 26.6154 33.3395H28.9312C29.0562 33.3395 29.1391 33.3029 29.18 33.2265L29.6397 32.1578C29.6963 32.0153 29.707 32.0021 29.8677 32.0021H32.0806C32.2344 32.0021 32.2376 32.0051 32.2351 32.1506L32.1855 33.1441C32.1836 33.2518 32.2734 33.3395 32.3858 33.3395H34.7255C34.7852 33.3395 34.8411 33.3155 34.8781 33.2728C34.9114 33.2349 34.9253 33.1869 34.9177 33.1375ZM30.8187 29.7179C30.7973 29.7179 30.7804 29.7173 30.7666 29.7161C30.732 29.7131 30.7088 29.6812 30.7176 29.6488C30.7219 29.6338 30.7283 29.6139 30.7377 29.5893L32.3971 25.6191C32.4116 25.58 32.4298 25.5415 32.4486 25.5043C32.4757 25.4508 32.5083 25.4472 32.5183 25.4868C32.5272 25.5199 32.328 29.5634 32.328 29.5634C32.3123 29.7149 32.3054 29.7209 32.1509 29.7336L30.8206 29.7185H30.8174L30.8187 29.7179Z" fill="#000000"/>
<path d="M39.6374 22.7002H37.8787C37.7857 22.7002 37.6814 22.7477 37.657 22.8547C37.657 22.8547 35.2092 33.131 35.2092 33.1322C35.1986 33.1796 35.2099 33.2265 35.2425 33.2656C35.2808 33.3112 35.3443 33.3395 35.4083 33.3395H37.6067C37.7248 33.3395 37.8058 33.2836 37.8278 33.1862C37.8278 33.1862 38.0941 32.0249 38.0947 32.0213C38.1136 31.9306 38.0809 31.8602 37.9968 31.8175C37.9572 31.7977 37.9176 31.7779 37.8787 31.7581L37.4974 31.5663L37.118 31.3752C37.0691 31.3505 37.02 31.3259 36.9717 31.3012C36.9472 31.2892 36.9321 31.2652 36.9328 31.2387C36.9334 31.1996 36.9673 31.1678 37.0081 31.1678L38.2128 31.1732C38.5734 31.175 38.9339 31.1503 39.2882 31.0872C41.783 30.6418 43.4399 28.7093 43.4877 26.0801C43.5285 23.8362 42.2334 22.699 39.6393 22.699L39.6374 22.7002ZM39.0388 28.8163H38.9917C38.8862 28.8163 38.8673 28.8049 38.8642 28.8012C38.8623 28.7989 39.5589 25.8415 39.5595 25.8373C39.5771 25.7519 39.5765 25.7026 39.5218 25.6738C39.4521 25.6365 38.4352 25.1178 38.4352 25.1178C38.4107 25.1051 38.3962 25.0811 38.3969 25.0547C38.3975 25.0162 38.4308 24.9843 38.4716 24.9843H40.0796C40.5802 24.9994 40.8591 25.4321 40.8459 26.1715C40.8226 27.4518 40.1932 28.7712 39.0388 28.8163Z" fill="#000000"/>
<path d="M41.4263 33.3395C41.7881 33.3395 42.0713 33.0732 42.0713 32.7144C42.0713 32.3555 41.7881 32.0892 41.4263 32.0892C41.0645 32.0892 40.7781 32.3555 40.7781 32.7144C40.7781 33.0732 41.0638 33.3395 41.4263 33.3395ZM40.9319 32.7119C40.9319 32.4072 41.121 32.2077 41.4263 32.2077C41.7315 32.2077 41.9175 32.4066 41.9175 32.7119C41.9175 33.0173 41.7315 33.2181 41.4263 33.2181C41.121 33.2181 40.9319 33.0191 40.9319 32.7119ZM41.143 33.0474H41.3484V32.8069H41.4081C41.5619 32.8069 41.4948 33.0191 41.5324 33.0474H41.7453V33.0371C41.7051 33.0269 41.7698 32.7607 41.5915 32.7324V32.7294C41.6782 32.7119 41.7341 32.6519 41.7341 32.5617C41.7341 32.4325 41.6367 32.3627 41.4797 32.3627H41.1418V33.0474H41.143ZM41.3484 32.6621V32.5016H41.4187C41.4891 32.5016 41.5293 32.5226 41.5293 32.5815C41.5293 32.6356 41.4891 32.6615 41.4187 32.6615H41.3484V32.6621Z" fill="#000000"/>
</svg>
