<svg width="56" height="56" viewBox="0 0 56 56" fill="none" xmlns="http://www.w3.org/2000/svg">
<path d="M44.1424 12H12.8575V43.1112H44.1424V12Z" fill="#F7DF1E"/>
<path d="M32.9412 36.7501C33.5604 37.7733 34.3658 38.5254 35.7904 38.5254C36.9872 38.5254 37.7516 37.92 37.7516 37.0835C37.7516 36.081 36.9662 35.7259 35.6489 35.1427L34.9269 34.8291C32.8427 33.9304 31.4581 32.8044 31.4581 30.4242C31.4581 28.2316 33.1085 26.5625 35.688 26.5625C37.5243 26.5625 38.8445 27.2094 39.7958 28.9032L37.5468 30.3649C37.0515 29.4662 36.5174 29.1121 35.688 29.1121C34.842 29.1121 34.3058 29.6553 34.3058 30.3649C34.3058 31.242 34.8425 31.597 36.0817 32.1402L36.8038 32.4533C39.2577 33.5185 40.6433 34.6044 40.6433 37.0459C40.6433 39.678 38.6006 41.12 35.8573 41.12C33.175 41.12 31.442 39.8262 30.594 38.1304L32.9412 36.7501ZM22.7383 37.0035C23.192 37.8183 23.6047 38.5072 24.5971 38.5072C25.546 38.5072 26.1447 38.1314 26.1447 36.6701V26.7294H29.0328V36.7096C29.0328 39.7368 27.2794 41.1146 24.72 41.1146C22.4075 41.1146 21.0683 39.9032 20.3872 38.4442L22.7383 37.0035Z" fill="black"/>
</svg>
