<svg width="56" height="56" viewBox="0 0 56 56" fill="none" xmlns="http://www.w3.org/2000/svg">
<g clip-path="url(#clip0_34_208)">
<path d="M27.6425 12.5C19.0045 12.5 12 19.4644 12 28.0556C12 34.9286 16.482 40.7595 22.6973 42.8164C23.4791 42.9604 23.7661 42.4789 23.7661 42.0681C23.7661 41.6972 23.7515 40.4717 23.7449 39.1719C19.393 40.1129 18.4748 37.3365 18.4748 37.3365C17.7632 35.5385 16.738 35.0605 16.738 35.0605C15.3188 34.095 16.8449 34.1147 16.8449 34.1147C18.4158 34.2245 19.2429 35.7178 19.2429 35.7178C20.638 38.096 22.9022 37.4084 23.7949 37.011C23.9352 36.0055 24.3407 35.3194 24.788 34.9309C21.3136 34.5375 17.6611 33.2037 17.6611 27.2432C17.6611 25.545 18.2722 24.1572 19.2729 23.0679C19.1105 22.676 18.5751 21.0939 19.4244 18.9512C19.4244 18.9512 20.738 18.5332 23.7273 20.5458C24.9749 20.201 26.3131 20.0283 27.6425 20.0224C28.9719 20.0283 30.3111 20.201 31.5612 20.5458C34.5469 18.5332 35.8586 18.9512 35.8586 18.9512C36.71 21.0939 36.1744 22.676 36.012 23.0679C37.0149 24.1572 37.6218 25.5449 37.6218 27.2432C37.6218 33.2178 33.9625 34.5335 30.4793 34.9185C31.0403 35.4012 31.5402 36.348 31.5402 37.7991C31.5402 39.8805 31.5221 41.5557 31.5221 42.0681C31.5221 42.482 31.8036 42.9671 32.5966 42.8143C38.8085 40.7551 43.2849 34.9263 43.2849 28.0556C43.2849 19.4644 36.2814 12.5 27.6425 12.5Z" fill="#000000"/>
<path d="M17.8587 34.6594C17.8243 34.7366 17.7019 34.7598 17.5906 34.7068C17.4771 34.6561 17.4133 34.5507 17.4501 34.4731C17.4839 34.3935 17.6063 34.3713 17.7195 34.4248C17.8333 34.4754 17.898 34.5818 17.8587 34.6594ZM18.6281 35.3421C18.5535 35.4109 18.4077 35.3789 18.3087 35.2702C18.2063 35.1618 18.1872 35.0168 18.2629 34.9469C18.3398 34.8782 18.4813 34.9103 18.5838 35.0189C18.6861 35.1286 18.7061 35.2726 18.6281 35.3421ZM19.156 36.2156C19.0601 36.2818 18.9033 36.2197 18.8065 36.0814C18.7107 35.9432 18.7107 35.7772 18.8086 35.7108C18.9057 35.6443 19.0601 35.704 19.1582 35.8413C19.2539 35.982 19.254 36.1478 19.156 36.2156ZM20.0487 37.2273C19.9629 37.3213 19.7804 37.2961 19.6466 37.1678C19.51 37.0424 19.4718 36.8644 19.5578 36.7703C19.6445 36.6761 19.8282 36.7026 19.9629 36.8299C20.0987 36.955 20.1401 37.1344 20.0487 37.2273ZM21.2024 37.5689C21.1647 37.6907 20.9888 37.7461 20.8116 37.6944C20.6347 37.641 20.5189 37.4983 20.5546 37.3752C20.5914 37.2526 20.7681 37.1949 20.9466 37.2503C21.1232 37.3033 21.2392 37.445 21.2024 37.5689ZM22.5156 37.7138C22.52 37.8421 22.3697 37.9485 22.1837 37.9508C21.9966 37.9548 21.8453 37.851 21.8434 37.7249C21.8434 37.5953 21.9902 37.4899 22.1772 37.4868C22.3632 37.4832 22.5156 37.5863 22.5156 37.7138ZM23.8055 37.6646C23.8278 37.7898 23.6985 37.9183 23.5138 37.9525C23.3323 37.9854 23.1642 37.9082 23.141 37.7841C23.1184 37.6558 23.2502 37.5273 23.4314 37.494C23.6164 37.4621 23.7819 37.5373 23.8055 37.6646Z" fill="#000000"/>
</g>
<defs>
<clipPath id="clip0_34_208">
<rect width="32" height="31" fill="white" transform="translate(12 12.5)"/>
</clipPath>
</defs>
</svg>
