<svg width="56" height="56" viewBox="0 0 56 56" fill="none" xmlns="http://www.w3.org/2000/svg">
<path d="M22.8148 43.5555C25.677 43.5555 28 41.2325 28 38.3703V33.1852H22.8148C19.9526 33.1852 17.6296 35.5081 17.6296 38.3703C17.6296 41.2325 19.9526 43.5555 22.8148 43.5555Z" fill="#0ACF83"/>
<path d="M17.6296 27.9999C17.6296 25.1376 19.9526 22.8147 22.8148 22.8147H28V33.185H22.8148C19.9526 33.185 17.6296 30.8621 17.6296 27.9999Z" fill="#A259FF"/>
<path d="M17.6296 17.6295C17.6296 14.7673 19.9526 12.4444 22.8148 12.4444H28V22.8147H22.8148C19.9526 22.8147 17.6296 20.4918 17.6296 17.6295Z" fill="#F24E1E"/>
<path d="M28 12.4444H33.1852C36.0474 12.4444 38.3704 14.7673 38.3704 17.6295C38.3704 20.4918 36.0474 22.8147 33.1852 22.8147H28V12.4444Z" fill="#FF7262"/>
<path d="M38.3704 27.9999C38.3704 30.8621 36.0474 33.185 33.1852 33.185C30.323 33.185 28 30.8621 28 27.9999C28 25.1376 30.323 22.8147 33.1852 22.8147C36.0474 22.8147 38.3704 25.1376 38.3704 27.9999Z" fill="#1ABCFE"/>
</svg>
