<svg width="22" height="22" viewBox="0 0 22 22" fill="none" xmlns="http://www.w3.org/2000/svg">
<path d="M8.24995 3.85001H4.39995C4.09745 3.85001 3.84995 4.09751 3.84995 4.40001V17.6C3.84995 17.9025 4.09745 18.15 4.39995 18.15H7.14995V19.8H4.39995C3.18651 19.8 2.19995 18.8135 2.19995 17.6V4.40001C2.19995 3.18657 3.18651 2.20001 4.39995 2.20001H8.98901C9.57339 2.20001 10.1337 2.43032 10.5462 2.84282L14.7571 7.0572C15.1696 7.4697 15.4 8.03001 15.4 8.61439V13.7535H13.75V9.35345H10.725C9.35683 9.35345 8.24995 8.24658 8.24995 6.87845V3.85345V3.85001ZM13.0659 7.70001L9.89995 4.53407V6.87501C9.89995 7.3322 10.2678 7.70001 10.725 7.70001H13.0659ZM9.34995 15.2625H10.45C11.5878 15.2625 12.5125 16.1872 12.5125 17.325C12.5125 18.4628 11.5878 19.3875 10.45 19.3875H10.0375V20.35C10.0375 20.7281 9.72808 21.0375 9.34995 21.0375C8.97183 21.0375 8.66245 20.7281 8.66245 20.35V15.95C8.66245 15.5719 8.97183 15.2625 9.34995 15.2625ZM10.45 18.0125C10.8281 18.0125 11.1375 17.7031 11.1375 17.325C11.1375 16.9469 10.8281 16.6375 10.45 16.6375H10.0375V18.0125H10.45ZM13.75 15.2625H14.85C15.8365 15.2625 16.6375 16.0634 16.6375 17.05V19.25C16.6375 20.2366 15.8365 21.0375 14.85 21.0375H13.75C13.3718 21.0375 13.0625 20.7281 13.0625 20.35V15.95C13.0625 15.5719 13.3718 15.2625 13.75 15.2625ZM14.85 19.6625C15.0768 19.6625 15.2625 19.4769 15.2625 19.25V17.05C15.2625 16.8231 15.0768 16.6375 14.85 16.6375H14.4375V19.6625H14.85ZM17.4625 15.95C17.4625 15.5719 17.7718 15.2625 18.15 15.2625H19.8C20.1781 15.2625 20.4875 15.5719 20.4875 15.95C20.4875 16.3281 20.1781 16.6375 19.8 16.6375H18.8375V17.4625H19.8C20.1781 17.4625 20.4875 17.7719 20.4875 18.15C20.4875 18.5281 20.1781 18.8375 19.8 18.8375H18.8375V20.35C18.8375 20.7281 18.5281 21.0375 18.15 21.0375C17.7718 21.0375 17.4625 20.7281 17.4625 20.35V15.95Z" fill="white"/>
</svg>
