<svg width="12" height="12" viewBox="0 0 12 12" fill="none" xmlns="http://www.w3.org/2000/svg">
<path d="M7 0C6.61281 0 6.3 0.312812 6.3 0.7C6.3 1.08719 6.61281 1.4 7 1.4H8.80906L4.40344 5.80562C4.13 6.07906 4.13 6.52313 4.40344 6.79656C4.67687 7.07 5.12094 7.07 5.39437 6.79656L9.8 2.39094V4.2C9.8 4.58719 10.1128 4.9 10.5 4.9C10.8872 4.9 11.2 4.58719 11.2 4.2V0.7C11.2 0.312812 10.8872 0 10.5 0H7ZM1.75 2.1C0.783125 2.1 0 2.88312 0 3.85V9.45C0 10.4169 0.783125 11.2 1.75 11.2H7.35C8.31687 11.2 9.1 10.4169 9.1 9.45V7.7C9.1 7.31281 8.78719 7 8.4 7C8.01281 7 7.7 7.31281 7.7 7.7V9.45C7.7 9.6425 7.5425 9.8 7.35 9.8H1.75C1.5575 9.8 1.4 9.6425 1.4 9.45V3.85C1.4 3.6575 1.5575 3.5 1.75 3.5H3.5C3.88719 3.5 4.2 3.18719 4.2 2.8C4.2 2.41281 3.88719 2.1 3.5 2.1H1.75Z" fill="white"/>
</svg>
