<svg width="151" height="26" viewBox="0 0 151 26" fill="none" xmlns="http://www.w3.org/2000/svg">
<path d="M21.8228 21.4C21.4095 21.4 21.0428 21.2533 20.7228 20.96C20.4028 20.6666 20.2428 20.2933 20.2428 19.84C20.2428 19.3733 20.3895 18.9866 20.6828 18.68C20.9895 18.36 21.3695 18.2 21.8228 18.2C22.2895 18.2 22.6761 18.3666 22.9828 18.7C23.2895 19.02 23.4428 19.3933 23.4428 19.82C23.4428 20.2733 23.2828 20.6533 22.9628 20.96C22.6428 21.2533 22.2628 21.4 21.8228 21.4ZM23.4428 15.4C23.0295 15.4 22.6628 15.2533 22.3428 14.96C22.0228 14.6666 21.8628 14.2933 21.8628 13.84C21.8628 13.3733 22.0095 12.9866 22.3028 12.68C22.6095 12.36 22.9895 12.2 23.4428 12.2C23.9095 12.2 24.2961 12.3666 24.6028 12.7C24.9095 13.02 25.0628 13.3933 25.0628 13.82C25.0628 14.2733 24.9028 14.6533 24.5828 14.96C24.2628 15.2533 23.8828 15.4 23.4428 15.4Z" fill="#333333"/>
<path d="M14.9275 21.4C14.4342 21.4 14.0542 21.2933 13.7875 21.08C13.5208 20.8533 13.3875 20.5 13.3875 20.02C13.3875 19.6733 13.4475 19.2866 13.5675 18.86C13.7008 18.42 13.8875 17.8533 14.1275 17.16L15.0275 14.6C15.2142 14.0533 15.3408 13.6666 15.4075 13.44C15.4875 13.2 15.5275 12.9866 15.5275 12.8C15.5275 12.6266 15.5008 12.5066 15.4475 12.44C15.4075 12.36 15.3408 12.32 15.2475 12.32C15.0742 12.32 14.8675 12.4333 14.6275 12.66C14.3875 12.8866 14.1542 13.14 13.9275 13.42C13.7142 13.7 13.5675 13.9133 13.4875 14.06L12.8075 13.64C12.9942 13.2933 13.2542 12.9333 13.5875 12.56C13.9208 12.1733 14.2942 11.82 14.7075 11.5C15.1342 11.1666 15.5742 10.9 16.0275 10.7C16.4808 10.5 16.9142 10.4 17.3275 10.4C17.7408 10.4 18.0542 10.5066 18.2675 10.72C18.4942 10.9333 18.6075 11.26 18.6075 11.7C18.6075 11.9533 18.5608 12.2466 18.4675 12.58C18.3875 12.9 18.2542 13.3133 18.0675 13.82C17.8942 14.3266 17.6542 14.9933 17.3475 15.82L16.6075 17.84C16.5942 17.8933 16.5542 18.0066 16.4875 18.18C16.4208 18.34 16.3542 18.52 16.2875 18.72C16.2342 18.9066 16.2075 19.0666 16.2075 19.2C16.2075 19.32 16.2408 19.4266 16.3075 19.52C16.3742 19.6133 16.4808 19.66 16.6275 19.66C16.8142 19.66 17.0075 19.5866 17.2075 19.44C17.4208 19.2933 17.6208 19.1066 17.8075 18.88C18.0075 18.6533 18.1875 18.42 18.3475 18.18C18.5208 17.94 18.6608 17.7266 18.7675 17.54L19.4675 17.96C19.2675 18.3466 19.0142 18.7466 18.7075 19.16C18.4142 19.56 18.0675 19.9333 17.6675 20.28C17.2808 20.6133 16.8542 20.8866 16.3875 21.1C15.9208 21.3 15.4342 21.4 14.9275 21.4ZM18.3875 7.71998C17.9742 7.71998 17.6142 7.57998 17.3075 7.29998C17.0008 7.01998 16.8475 6.65331 16.8475 6.19998C16.8475 5.75998 16.9942 5.38664 17.2875 5.07998C17.5942 4.75998 17.9608 4.59998 18.3875 4.59998C18.8542 4.59998 19.2342 4.75998 19.5275 5.07998C19.8208 5.38664 19.9675 5.75331 19.9675 6.17998C19.9675 6.60664 19.8075 6.97331 19.4875 7.27998C19.1808 7.57331 18.8142 7.71998 18.3875 7.71998Z" fill="#333333"/>
<path d="M7.26 15.54C7.48667 14.9133 7.66667 14.4133 7.8 14.04C7.93333 13.6666 8.02667 13.3666 8.08 13.14C8.13333 12.9133 8.16 12.7133 8.16 12.54C8.16 12.3 8.11333 12.1266 8.02 12.02C7.94 11.9133 7.80667 11.86 7.62 11.86C7.19333 11.86 6.74 12.1333 6.26 12.68C5.78 13.2133 5.26 14.0666 4.7 15.24C4.15333 16.4133 3.56667 17.94 2.94 19.82L2.48 21.2H0L3.94 7.73998C4.04667 7.40664 4.12 7.13331 4.16 6.91998C4.2 6.69331 4.22 6.49331 4.22 6.31998C4.22 5.98664 4.09333 5.77331 3.84 5.67998C3.6 5.57331 3.14 5.51331 2.46 5.49998L2.62 4.59998H7.3L5.02 12.32L5.08 12.36C5.54667 11.7066 6.08667 11.22 6.7 10.9C7.32667 10.5666 8.02 10.4 8.78 10.4C9.48667 10.4 10.02 10.54 10.38 10.82C10.74 11.1 10.92 11.5333 10.92 12.12C10.92 12.6666 10.7933 13.32 10.54 14.08C10.2867 14.84 10.0067 15.64 9.7 16.48C9.54 16.9466 9.4 17.34 9.28 17.66C9.17333 17.98 9.08667 18.2466 9.02 18.46C8.95333 18.66 8.90667 18.8266 8.88 18.96C8.85333 19.08 8.84 19.18 8.84 19.26C8.84 19.5133 8.93333 19.64 9.12 19.64C9.30667 19.64 9.58667 19.4733 9.96 19.14C10.3333 18.7933 10.7067 18.3466 11.08 17.8L11.8 18.22C11.5067 18.7666 11.12 19.2866 10.64 19.78C10.16 20.26 9.64667 20.6533 9.1 20.96C8.56667 21.2533 8.05333 21.4 7.56 21.4C7.10667 21.4 6.74 21.2666 6.46 21C6.19333 20.7333 6.06 20.3533 6.06 19.86C6.06 19.58 6.1 19.2533 6.18 18.88C6.27333 18.5066 6.40667 18.0533 6.58 17.52C6.75333 16.9733 6.98 16.3133 7.26 15.54Z" fill="#333333"/>
<path d="M61.0628 13C56.4474 15.9692 54.032 18.3846 51.0628 23C48.0936 18.3846 45.6782 15.9692 41.0628 13C45.6782 10.0308 48.0936 7.61538 51.0628 3C54.032 7.61538 56.4474 10.0308 61.0628 13Z" fill="#333333"/>
<path d="M77.8538 21V19.7695L79.4456 19.4961V8.29492L77.8538 8.02148V6.78125H82.9612V8.02148L81.3694 8.29492V13.207H88.1663V8.29492L86.5745 8.02148V6.78125H88.1663H90.0901H91.6819V8.02148L90.0901 8.29492V19.4961L91.6819 19.7695V21H86.5745V19.7695L88.1663 19.4961V14.7207H81.3694V19.4961L82.9612 19.7695V21H77.8538ZM96.7894 21V19.7695L98.3812 19.4961V15.8242L94.0062 8.20703L92.8343 8.02148V6.78125H97.7366V8.02148L96.1155 8.20703L99.1331 13.793L99.3382 14.1738L99.348 14.1543L99.5433 13.793L102.707 8.20703L101.028 8.02148V6.78125H105.832V8.02148L104.592 8.20703L100.295 15.6777V19.4961L101.887 19.7695V21H96.7894ZM107.268 21V19.7695L108.86 19.4961V8.29492L107.268 8.02148V6.78125H117.795V10.1992H116.252L116.037 8.26562H110.784V12.8945H116.028V14.4082H110.784V19.5547H116.35L116.565 17.5918H118.098V21H107.268ZM120.735 15.7461V14.2422H125.51V15.7461H120.735ZM127.815 21V19.7695L129.407 19.4961V8.29492L127.815 8.02148V6.78125H132.922V8.02148L131.33 8.29492V19.4961L132.922 19.7695V21H127.815ZM134.534 21V19.7695L136.125 19.4961V8.29492L134.534 8.02148V6.78125H136.125H138.069L145.041 17.8652L145.1 17.8457V8.29492L143.352 8.02148V6.78125H146.867H148.459V8.02148L146.867 8.29492V21H145.11L137.951 9.85742L137.893 9.87695V19.4961L139.641 19.7695V21H134.534Z" fill="#333333"/>
</svg>
