<svg width="50" height="45" viewBox="0 0 50 45" fill="none" xmlns="http://www.w3.org/2000/svg">
<path d="M34.7994 13.3336C35.1912 13.5724 35.6613 13.5724 36.1314 13.5724C39.4222 13.5724 42.478 14.448 45.5338 15.4827C46.3957 15.8011 46.9443 16.4378 47.5711 16.995C49.6083 18.8257 49.5299 20.736 48.1195 22.8055C47.336 23.9198 48.3546 24.4771 48.8247 25.0342C49.3732 25.671 50 26.069 50 27.0241C49.9217 28.2181 50 29.412 49.0597 30.4467C48.1195 31.5611 48.1195 31.6407 48.9814 32.9142C50.3134 34.8245 49.5299 38.0084 47.2576 39.2023C45.3772 40.237 43.4967 41.1922 41.3811 41.5106C39.1872 41.8289 36.9933 42.6249 34.7994 42.9433C30.8034 43.5005 27.0425 45.172 22.8897 44.8536C21.0876 44.6944 19.3638 44.4556 17.8751 43.5801C16.5431 42.7841 15.4461 41.431 14.7409 39.9983C13.1739 36.8144 12.3119 33.4714 12.2336 29.9691C12.1552 27.1833 12.7038 24.5566 14.2708 22.1687C14.6626 21.6116 15.211 21.2932 15.6811 20.9748C17.64 19.6217 19.5204 18.189 21.2442 16.5175C22.8113 14.9255 23.7516 13.0948 24.2217 10.9457C24.8485 8.00069 25.9455 5.21483 27.2775 2.58817C28.2961 0.598268 29.628 -0.197701 31.0384 0.041087C33.5457 0.518663 35.3479 2.82694 35.3479 5.4536C35.2695 7.92108 34.5644 10.6274 34.7994 13.3336ZM23.2815 41.7494C26.5723 42.0678 29.2363 40.8738 32.057 40.3166C34.0159 39.9186 35.8964 39.3615 37.9336 39.1227C39.4223 38.8839 40.8326 38.4859 42.243 38.0084C43.2616 37.69 44.3586 37.292 45.2205 36.4164C45.8473 35.7797 46.239 35.0633 45.9256 34.1878C45.6122 33.3122 44.8287 33.2326 44.0452 33.2326C43.1833 33.3122 42.4781 32.9938 41.6946 32.5958C41.1461 32.3571 41.0677 31.9591 41.146 31.3223C41.3027 30.3671 42.0079 29.9692 42.7914 29.7304C43.7317 29.4916 44.7503 29.1732 45.5338 28.6161C46.1606 28.2181 46.4741 27.5813 46.3958 26.8649C46.3958 26.2282 45.7689 26.1485 45.2988 25.9893C44.3586 25.5914 43.4183 25.273 42.5564 24.7158C41.3811 23.9995 41.3811 23.1239 42.6348 22.5667C43.7317 22.0096 44.672 21.4524 45.2988 20.2585C45.7689 19.2237 45.7689 18.8257 44.7503 18.2686C44.3585 18.0298 43.8884 18.0298 43.4966 17.791C42.0079 17.1542 40.3625 17.1542 38.7954 16.7562C36.9933 16.3583 35.2696 16.597 33.4674 16.597C32.5272 16.597 30.6467 15.3235 30.8034 14.4479C31.2735 12.6172 30.8034 10.7865 31.3518 8.95584C31.822 7.28433 31.822 5.61279 31.9004 3.86168C31.9004 3.4637 31.822 3.06574 31.3518 2.98615C30.8817 2.90655 30.6467 3.22494 30.49 3.54333C29.6281 5.53323 28.5312 7.36393 28.061 9.51302C27.5909 11.5825 27.2775 13.7316 26.1805 15.4031C23.9083 18.7461 21.3226 21.93 17.0915 22.7259C16.2297 22.8851 15.9946 23.4423 15.9946 24.1586C15.9946 25.1138 15.9946 26.069 15.9162 27.0241C15.4461 30.7651 16.2296 34.2674 17.5616 37.7696C18.737 41.033 20.6958 42.1474 23.2815 41.7494Z" fill="#8A70FF"/>
<path d="M1.34247 40.1576C1.18577 39.9188 1.18569 39.68 1.26404 39.4412C1.81252 39.3616 2.12601 38.9637 1.73424 38.5657C1.34247 38.0881 1.18575 37.5309 1.42081 37.2125C2.20434 36.1778 1.7342 35.4614 1.10737 34.6655C0.950666 34.4267 0.715568 34.1879 0.872275 34.0287C1.57746 33.1531 0.558918 33.2327 0.245504 32.9143C-0.0679103 32.2776 0.010405 31.6408 0.010405 31.0041C0.79394 30.6061 0.715567 29.4121 1.65581 29.0937C1.73416 29.0937 1.96928 28.2182 1.42081 28.3774C0.715625 28.5366 0.715625 28.1386 0.637271 27.7406C0.558918 27.1834 0.793959 26.5467 0.323838 26.1487C0.323838 25.9099 0.323838 25.5915 0.323838 25.3527C1.65585 24.716 1.81254 24.2384 1.18571 23.3628C1.18571 23.2036 1.2641 23.1241 1.42081 23.0445C1.57751 23.0445 1.73422 23.0444 1.81257 22.9648C3.22294 21.9301 4.55489 21.6913 6.35702 22.0893C8.31586 22.4873 9.17779 23.2832 9.72626 24.9547C9.72626 26.0691 10.2747 27.1834 9.88293 28.2978C9.64787 28.3774 9.33447 28.5366 9.41283 28.7753C9.72624 30.2081 8.39425 31.6408 9.33449 33.0735C8.70767 34.0287 9.72624 34.5859 9.80459 35.3818C9.88295 36.4166 10.118 37.4513 10.1964 38.5657C10.2747 39.7596 10.8232 40.9535 11.9202 41.6699C12.1553 42.2271 11.9201 42.7047 11.7634 43.1822C11.1366 43.3414 10.4315 43.2618 9.96136 43.6598C8.551 44.6945 6.98387 44.4557 5.49515 44.2966C4.2415 44.1374 2.9095 43.819 2.67444 42.0679C2.51774 41.2719 2.04765 40.6352 1.34247 40.1576ZM3.53631 23.2036C3.45796 23.0444 3.37959 23.0444 3.22288 23.2036C3.30123 23.2036 3.30129 23.2833 3.37964 23.2833C3.458 23.2833 3.45796 23.2036 3.53631 23.2036Z" fill="#8A70FF"/>
<path d="M11.9202 41.7495C10.8233 40.9535 10.3531 39.8392 10.1964 38.6452C10.118 37.6105 9.88296 36.5757 9.80461 35.4614C9.72626 34.6654 8.70768 34.1082 9.33451 33.1531C8.39427 31.7203 9.72626 30.2877 9.41284 28.8549C9.33449 28.6161 9.64788 28.4569 9.88294 28.3773C9.9613 32.9143 10.7449 37.2921 11.9202 41.7495Z" fill="#8A70FF"/>
<path d="M1.34252 40.1575C2.04771 40.635 2.51781 41.3514 2.59616 42.0677C2.83122 43.7393 4.24157 44.1372 5.41687 44.2964C6.90558 44.4556 8.47262 44.774 9.88298 43.6597C10.3531 43.3413 11.0583 43.3413 11.6851 43.1821C11.6068 44.4556 10.5099 44.774 9.64798 44.8536C7.45408 44.9332 5.18181 45.4108 3.06626 44.0576C2.28273 43.5801 1.81264 43.2617 1.73429 42.3065C1.81264 41.5902 1.26417 40.9534 1.34252 40.1575Z" fill="#8A70FF"/>
<path d="M9.80466 24.9549C9.25619 23.2834 8.316 22.4874 6.43552 22.0894C4.55503 21.6915 3.22298 21.9302 1.89097 22.965C1.81262 23.0446 1.65591 22.965 1.49921 23.0446C2.20439 21.6915 3.30138 21.1343 4.86845 21.1343C6.1221 21.2139 7.14068 21.9302 8.47269 21.771C9.33458 21.6118 10.0397 23.5221 9.80466 24.9549Z" fill="#8A70FF"/>
<path d="M0.323868 32.9143C0.637282 33.2327 1.57756 33.0735 0.950734 34.0287C0.794027 34.2675 1.02903 34.5062 1.18574 34.6654C1.73421 35.4614 2.20435 36.1778 1.49917 37.2125C1.26411 37.5309 1.42084 38.0881 1.8126 38.5656C2.20437 39.0432 1.89098 39.3616 1.3425 39.4412C0.558967 38.8044 0.950677 37.7697 0.79397 36.9737C0.402202 35.6206 0.167161 34.2674 0.323868 32.9143Z" fill="#8A70FF"/>
<path d="M0.480531 26.0691C0.950652 26.5467 0.637257 27.1834 0.793964 27.661C0.872317 28.059 0.872317 28.457 1.5775 28.2978C2.12597 28.2182 1.89095 29.0142 1.8126 29.0142C0.872356 29.3325 0.872375 30.4468 0.167193 30.9244C0.0888397 29.3325 -0.303004 27.661 0.480531 26.0691Z" fill="#8A70FF"/>
<path d="M1.26409 23.2831C1.96927 24.1586 1.73423 24.6362 0.402222 25.273C0.480575 24.477 0.55891 23.7607 1.26409 23.2831Z" fill="#8A70FF"/>
<path d="M3.53633 23.2035C3.45798 23.2035 3.45802 23.2831 3.37966 23.2831C3.30131 23.2831 3.30125 23.2035 3.2229 23.2035C3.37961 23.0443 3.45798 23.0443 3.53633 23.2035Z" fill="#8A70FF"/>
</svg>
