<svg width="251" height="21" viewBox="0 0 251 21" fill="none" xmlns="http://www.w3.org/2000/svg">
<path d="M0.424011 10.5C8.75734 23.8333 17.0907 23.8333 25.424 10.5C33.7573 -2.83333 42.0907 -2.83333 50.424 10.5C58.7573 23.8333 67.0907 23.8333 75.424 10.5C83.7573 -2.83333 92.0907 -2.83333 100.424 10.5C108.757 23.8333 117.091 23.8333 125.424 10.5C133.757 -2.83333 142.091 -2.83333 150.424 10.5C158.757 23.8333 167.091 23.8333 175.424 10.5C183.757 -2.83333 192.091 -2.83333 200.424 10.5C208.757 23.8333 217.091 23.8333 225.424 10.5C233.757 -2.83333 242.091 -2.83333 250.424 10.5" stroke="#333333"/>
</svg>
