<svg width="251" height="21" viewBox="0 0 251 21" fill="none" xmlns="http://www.w3.org/2000/svg">
<path d="M0.424011 10.5C8.75734 -2.83333 17.0907 -2.83333 25.424 10.5C33.7573 23.8333 42.0907 23.8333 50.424 10.5C58.7573 -2.83333 67.0907 -2.83333 75.424 10.5C83.7573 23.8333 92.0907 23.8333 100.424 10.5C108.757 -2.83333 117.091 -2.83333 125.424 10.5C133.757 23.8333 142.091 23.8333 150.424 10.5C158.757 -2.83333 167.091 -2.83333 175.424 10.5C183.757 23.8333 192.091 23.8333 200.424 10.5C208.757 -2.83333 217.091 -2.83333 225.424 10.5C233.757 23.8333 242.091 23.8333 250.424 10.5" stroke="#333333"/>
</svg>
